<?xml version="1.0" encoding="iso-8859-1"?>
<!-- Uploaded to: SVG Repo, www.svgrepo.com, Generator: SVG Repo Mixer Tools -->
<!DOCTYPE svg PUBLIC "-//W3C//DTD SVG 1.1//EN" "http://www.w3.org/Graphics/SVG/1.1/DTD/svg11.dtd">
<svg fill="#000000" height="800px" width="800px" version="1.1" id="Capa_1" xmlns="http://www.w3.org/2000/svg" xmlns:xlink="http://www.w3.org/1999/xlink" 
	 viewBox="0 0 373.679 373.679" xml:space="preserve">
<path d="M63.829,248.602c0,4.971-4.029,9-9,9H9c-4.971,0-9-4.029-9-9s4.029-9,9-9h45.829
	C59.8,239.602,63.829,243.631,63.829,248.602z M54.829,271.927H34.338c-4.971,0-9,4.029-9,9s4.029,9,9,9h20.491c4.971,0,9-4.029,9-9
	S59.8,271.927,54.829,271.927z M98.154,127.592c-4.971,0-9,4.029-9,9c0,5.309-4.318,9.627-9.626,9.627c-4.971,0-9,4.029-9,9
	s4.029,9,9,9c15.233,0,27.626-12.394,27.626-27.627C107.154,131.622,103.125,127.592,98.154,127.592z M79.526,201.481
	c-35.082,0-63.624-28.543-63.624-63.626c0-32.737,30.294-71.402,50.341-96.987c2.196-2.803,4.266-5.443,6.149-7.893
	c1.702-2.212,4.333-3.509,7.125-3.512c0.003,0,0.006,0,0.009,0c2.788,0,5.418,1.292,7.123,3.498
	c1.833,2.372,3.829,4.915,5.938,7.602c20.135,25.646,50.563,64.4,50.563,97.292C143.15,172.938,114.608,201.481,79.526,201.481z
	 M125.15,137.855c0-26.146-27.022-61.077-45.614-84.767c-18.514,23.635-45.633,58.655-45.633,84.767
	c0,25.158,20.467,45.626,45.624,45.626S125.15,163.013,125.15,137.855z M133.196,227.435c0,4.971,4.029,9,9,9h10.126
	c4.971,0,9-4.029,9-9s-4.029-9-9-9h-10.126C137.225,218.435,133.196,222.464,133.196,227.435z M313.136,292.76h-0.023
	c-4.971,0-8.988,4.029-8.988,9s4.041,9,9.012,9s9-4.029,9-9S318.107,292.76,313.136,292.76z M373.636,267.303l-0.025,5.546
	c-0.017,3.626-0.036,7.749-0.036,12.761c0,10.762-7.74,20.081-18.652,23.625c-3.541,19.858-20.937,34.98-41.798,34.98
	c-23.41,0-42.456-19.045-42.456-42.455s19.046-42.456,42.456-42.456c19.148,0,35.377,12.741,40.651,30.191
	c1.128-1.144,1.799-2.492,1.799-3.886c0-5.044,0.02-9.194,0.036-12.844l0.025-5.549c0.036-7.466,0.085-17.69-0.025-22.46
	c-0.074-3.288-0.163-5.986-0.394-8.32H216.762c-3.23,0-10.796,0-33.943-22.876c-7.053-6.97-21.072-21.802-23.649-28.05
	c-1.896-4.595,0.292-9.856,4.887-11.752c4.525-1.868,9.695,0.227,11.663,4.678c1.223,2.192,8.542,11.172,19.149,21.724
	c13.36,13.291,20.46,17.593,22.394,18.276h127.84c-2.895-2.775-6.607-6.065-11.377-10.29c-2.478-2.195-5.198-4.606-8.187-7.288
	c-2.172-1.949-4.335-4.016-6.427-6.015c-3.066-2.93-6.237-5.96-9.539-8.726c-2.904-2.434-5.654-4.749-8.271-6.951
	c-33.406-28.129-42.385-35.688-70.555-35.688h-62.132c-4.971,0-9-4.029-9-9s4.029-9,9-9h62.132c34.738,0,48.618,11.687,82.148,39.92
	c2.604,2.192,5.343,4.498,8.235,6.921c3.753,3.144,7.141,6.38,10.416,9.51c2.084,1.991,4.053,3.873,6.015,5.634
	c2.955,2.652,5.648,5.038,8.1,7.211c21.572,19.112,27.37,24.249,27.945,49.673C373.722,249.363,373.672,259.732,373.636,267.303z
	 M337.582,301.891c-0.003-0.112-0.003-0.226-0.001-0.337c-0.111-13.391-11.039-24.25-24.456-24.25
	c-13.485,0-24.456,10.971-24.456,24.456c0,13.484,10.971,24.455,24.456,24.455C326.567,326.215,337.51,315.316,337.582,301.891z
	 M250.944,301.759c0,4.971-4.029,9-9,9h-51.965c-4.139,19.103-21.173,33.456-41.497,33.456c-20.843,0-38.226-15.097-41.789-34.929
	c-7.211-2.285-13.16-7.098-16.355-13.52c-1.601-3.213-2.414-6.632-2.414-10.157v-60.013c0-4.971,4.029-9,9-9s9,4.029,9,9v60.013
	c0,0.715,0.177,1.433,0.526,2.134c0.306,0.615,0.763,1.24,1.356,1.831c5.25-17.49,21.498-30.271,40.675-30.271
	c20.323,0,37.356,14.354,41.496,33.455h51.966C246.915,292.759,250.944,296.789,250.944,301.759z M172.938,301.76
	c0-13.485-10.971-24.456-24.457-24.456c-13.459,0-24.414,10.929-24.457,24.377c0,0.03,0,0.061,0,0.091
	c0.007,13.479,10.975,24.443,24.457,24.443C161.967,326.215,172.938,315.245,172.938,301.76z M148.494,292.76h-0.023
	c-4.971,0-8.988,4.029-8.988,9s4.041,9,9.012,9s9-4.029,9-9S153.464,292.76,148.494,292.76z"/>
</svg>