<?xml version="1.0" encoding="utf-8"?>
<!-- Uploaded to: SVG Repo, www.svgrepo.com, Generator: SVG Repo Mixer Tools -->
<svg width="800px" height="800px" viewBox="-8.11 0 195.31 195.31" xmlns="http://www.w3.org/2000/svg">

<defs>

<style>.cls-1{fill:#ffffff;}</style>

</defs>

<g id="Layer_2" data-name="Layer 2">

<g id="Layer_1-2" data-name="Layer 1">

<path d="M112.85,42.43c6.67-3.87,13.57-4.17,20.42-3.44,12.7,1.34,22.73,7.2,29.09,18.65,4.23,7.62,3.87,15.47.66,23.18-1.84,4.4-4.6,8.43-7.23,13.12a24.55,24.55,0,0,0,3.92,2.48c8.64,3.52,13.49,10.42,16.44,18.77A54.41,54.41,0,0,1,178,144a20.43,20.43,0,0,1-8.49,13.38c-6.49,4.68-13.52,7.37-21.55,7.34-2.84,0-5.67,0-8,0-2.25,1.44-2,3.31-2.26,4.93-1,6.17-4.35,11.22-8.22,15.82-8.63,10.25-26.06,12.85-37.69,6.14-3.68-2.12-5.56-5.7-8.08-8.74a75.49,75.49,0,0,1-4.79-7.39,13.81,13.81,0,0,0-3.29,1.07c-6.32,4.12-13.42,6.37-20.48,8.69-12.39,4.07-24,0-31.74-10.56a41.66,41.66,0,0,1-7.09-17.31,30.76,30.76,0,0,1,4.27-22.27c1.65-2.68,3.53-5.2,5.63-8.27a26.79,26.79,0,0,0-3.66-3c-3.46-2-7-3.83-10.58-5.72C4.5,114.07.79,107.77.13,99.4A38.71,38.71,0,0,1,5.46,76.31,25.17,25.17,0,0,1,23.4,64.21c3.92-.68,7.9-1,11.69-1.46.29-.81.72-1.39.59-1.77-3.17-9.15-3.16-18.58-2.36-28a40.2,40.2,0,0,1,6.94-19.16C44.6,7.38,51.53,4,58.61,1.71A39.08,39.08,0,0,1,82.34,2C96.89,6.61,105.7,16.86,109,31.82,109.67,35.15,110.29,38.52,112.85,42.43ZM88,161.88c.84,8.7,5.25,15.37,10.4,21.58a10.52,10.52,0,0,0,5,3c7.86,2.26,12.27.53,16.84-6.32a44.58,44.58,0,0,0,2.56-4.45c2.82-5.52,4.48-11.17,1.75-17.28a7.49,7.49,0,0,1-.32-2.53c-.09-1.86,1.26-3.58,3.06-3.36,3.09.38,6.45.54,9.14,1.9,4.94,2.5,9.81,2.57,15,1.57,7.84-1.51,12.82-6.29,14.21-14a74.28,74.28,0,0,0,1.2-8.5c.62-10.13-1.78-19.28-9.12-26.74a15,15,0,0,0-8.93-4.69,43.3,43.3,0,0,1-6.69-1.34,3.57,3.57,0,0,1-2.27-4.84,12.57,12.57,0,0,1,2.07-3.65c1.62-2,3.6-3.72,5.12-5.78,4-5.44,6.63-11.67,6-18.36-1.46-16.52-19.45-25.77-34-17.71a106.31,106.31,0,0,0-9.16,6.3,24.83,24.83,0,0,1-2.69,2.08,5,5,0,0,1-7.48-4.16c-.14-1.71,0-3.44,0-5.15a55.37,55.37,0,0,0-5.84-24.86C89.11,15.37,82,9.41,70.93,9.23,65.4,9.14,61.14,12,56.64,14.5c-7.1,3.87-10.79,9.9-11.71,17.87A60.42,60.42,0,0,0,45.9,52c1.18,5.55,2.79,11,4.28,16.77a12.39,12.39,0,0,1-10.7,4,52.3,52.3,0,0,0-8.55-.53c-7.73.49-13.41,4-16.47,11.49a32.81,32.81,0,0,0-2.19,12.57c0,6.23,2.47,11.2,7.79,14.41,6.1,3.68,12,7.86,18.88,10.09,1.51.49,2.77,1.72,4,2.47-.2,4.14-2.88,5.88-5.37,7.82C22.27,142.92,27,166.72,40,175.85a13,13,0,0,0,11.42,2.22c9.65-2.77,19.35-5.56,24.69-15.47,1.71-3.19,5-3.53,8.25-2.47A33.94,33.94,0,0,1,88,161.88Z"/>

<path class="cls-1" d="M88,161.88a33.94,33.94,0,0,0-3.64-1.75c-3.29-1.06-6.54-.72-8.25,2.47-5.34,9.91-15,12.7-24.69,15.47A13,13,0,0,1,40,175.85c-12.92-9.13-17.68-32.93-2.43-44.8,2.49-1.94,5.17-3.68,5.37-7.82-1.18-.75-2.44-2-4-2.47-6.92-2.23-12.78-6.41-18.88-10.09-5.32-3.21-7.82-8.18-7.79-14.41a32.81,32.81,0,0,1,2.19-12.57c3.06-7.51,8.74-11,16.47-11.49a52.3,52.3,0,0,1,8.55.53,12.39,12.39,0,0,0,10.7-4C48.69,63,47.08,57.55,45.9,52a60.42,60.42,0,0,1-1-19.63c.92-8,4.61-14,11.71-17.87C61.14,12,65.4,9.14,70.93,9.23c11,.18,18.18,6.14,22.91,15.39a55.37,55.37,0,0,1,5.84,24.86c0,1.71-.12,3.44,0,5.15a5,5,0,0,0,7.48,4.16,24.83,24.83,0,0,0,2.69-2.08,106.31,106.31,0,0,1,9.16-6.3c14.53-8.06,32.52,1.19,34,17.71.59,6.69-2,12.92-6,18.36-1.52,2.06-3.5,3.78-5.12,5.78a12.57,12.57,0,0,0-2.07,3.65,3.57,3.57,0,0,0,2.27,4.84,43.3,43.3,0,0,0,6.69,1.34,15,15,0,0,1,8.93,4.69c7.34,7.46,9.74,16.61,9.12,26.74a74.28,74.28,0,0,1-1.2,8.5c-1.39,7.7-6.37,12.48-14.21,14-5.18,1-10,.93-15-1.57-2.69-1.36-6-1.52-9.14-1.9-1.8-.22-3.15,1.5-3.06,3.36a7.49,7.49,0,0,0,.32,2.53c2.73,6.11,1.07,11.76-1.75,17.28a44.58,44.58,0,0,1-2.56,4.45c-4.57,6.85-9,8.58-16.84,6.32a10.52,10.52,0,0,1-5-3C93.2,177.25,88.79,170.58,88,161.88Zm4.71-77.73c-1.71,0-3.43-.07-5.14,0-6.59.33-11.38,3.61-14.4,9.32a34.11,34.11,0,0,0-4.35,14.72c-.34,9.48,2.82,16.73,12.54,20.21a40.33,40.33,0,0,0,14.23,2.49c8.61-.21,15.27-4.35,19-12.46a38.68,38.68,0,0,0,3.78-14.89c.14-4.33-.76-8.79-4.46-11.62C107.65,87.19,100.94,83.4,92.66,84.15Z"/>

<path d="M92.66,84.15c8.28-.75,15,3,21.2,7.79,3.7,2.83,4.6,7.29,4.46,11.62a38.68,38.68,0,0,1-3.78,14.89c-3.73,8.11-10.39,12.25-19,12.46a40.33,40.33,0,0,1-14.23-2.49c-9.72-3.48-12.88-10.73-12.54-20.21a34.11,34.11,0,0,1,4.35-14.72c3-5.71,7.81-9,14.4-9.32C89.23,84.08,91,84.15,92.66,84.15ZM80.58,107.61c.43,1.82.75,5,1.92,7.82,2.83,6.8,9,8.57,15.37,4.86,5.18-3,6.92-8,8-13.41,1.34-6.71-1.05-11.41-7.54-13.08C85.7,90.56,82.11,92.47,80.58,107.61Z"/>

<path class="cls-1" d="M80.58,107.61c1.53-15.14,5.12-17,17.75-13.81,6.49,1.67,8.88,6.37,7.54,13.08-1.08,5.43-2.82,10.39-8,13.41-6.35,3.71-12.54,1.94-15.37-4.86C81.33,112.61,81,109.43,80.58,107.61Z"/>

</g>

</g>

</svg>