<?xml version="1.0" encoding="iso-8859-1"?>
<!-- Uploaded to: SVG Repo, www.svgrepo.com, Generator: SVG Repo Mixer Tools -->
<svg fill="#000000" height="800px" width="800px" version="1.1" id="Layer_1" xmlns="http://www.w3.org/2000/svg" xmlns:xlink="http://www.w3.org/1999/xlink" 
	 viewBox="0 0 503.607 503.607" xml:space="preserve">
<g transform="translate(1 1)">
	<g>
		<g>
			<path d="M494.213,150.082c5.036,0,8.393-3.357,8.393-8.393s-3.357-8.393-8.393-8.393h-41.967v-8.393h41.967
				c5.036,0,8.393-3.357,8.393-8.393s-3.357-8.393-8.393-8.393h-41.967v-8.393h33.574c5.036,0,8.393-3.357,8.393-8.393
				s-3.357-8.393-8.393-8.393h-33.574v-8.393h25.18c5.036,0,8.393-3.357,8.393-8.393s-3.357-8.393-8.393-8.393h-25.18v-8.393h16.787
				c5.036,0,8.393-3.357,8.393-8.393c0-5.036-3.357-8.393-8.393-8.393h-16.787V24.18h8.393c5.036,0,8.393-3.357,8.393-8.393
				s-3.357-8.393-8.393-8.393h-8.393c0-5.036-3.357-8.393-8.393-8.393c-5.036,0-8.393,3.357-8.393,8.393h-8.393
				c-5.036,0-8.393,3.357-8.393,8.393s3.357,8.393,8.393,8.393h8.393v8.393h-16.787c-5.036,0-8.393,3.357-8.393,8.393
				c0,5.036,3.357,8.393,8.393,8.393h16.787v8.393h-25.18c-5.036,0-8.393,3.357-8.393,8.393s3.357,8.393,8.393,8.393h25.18v8.393
				h-33.574c-5.036,0-8.393,3.357-8.393,8.393s3.357,8.393,8.393,8.393h33.574v8.393h-41.967c-5.036,0-8.393,3.357-8.393,8.393
				s3.357,8.393,8.393,8.393h41.967v8.393h-41.967c-5.036,0-8.393,3.357-8.393,8.393s3.357,8.393,8.393,8.393h41.967v8.393h-41.967
				c-5.036,0-8.393,3.357-8.393,8.393s3.357,8.393,8.393,8.393h41.967v8.393h-41.967c-5.036,0-8.393,3.357-8.393,8.393
				s3.357,8.393,8.393,8.393h41.967v8.393h-33.574c-5.036,0-8.393,3.357-8.393,8.393s3.357,8.393,8.393,8.393h33.574v8.393h-25.18
				c-5.036,0-8.393,3.357-8.393,8.393s3.357,8.393,8.393,8.393h25.18v8.393h-16.787c-5.036,0-8.393,3.357-8.393,8.393
				c0,5.036,3.357,8.393,8.393,8.393h16.787v33.574h-10.072c-12.59,0-23.502,10.911-23.502,23.502v18.466h-16.787v151.082h117.508
				V351.525H485.82v-18.466c0-12.59-10.911-23.502-23.502-23.502h-10.072v-33.574h16.787c5.036,0,8.393-3.357,8.393-8.393
				c0-5.036-3.357-8.393-8.393-8.393h-16.787v-8.393h25.18c5.036,0,8.393-3.357,8.393-8.393s-3.357-8.393-8.393-8.393h-25.18v-8.393
				h33.574c5.036,0,8.393-3.357,8.393-8.393s-3.357-8.393-8.393-8.393h-33.574v-8.393h41.967c5.036,0,8.393-3.357,8.393-8.393
				s-3.357-8.393-8.393-8.393h-41.967v-8.393h41.967c5.036,0,8.393-3.357,8.393-8.393s-3.357-8.393-8.393-8.393h-41.967v-8.393
				H494.213z M485.82,485.82h-83.934V368.311h83.934V485.82z M469.033,333.059v18.466h-50.361v-18.466
				c0-3.357,3.357-6.715,6.715-6.715h36.931C465.675,326.344,469.033,329.702,469.033,333.059z"/>
			<path d="M317.951,129.181c1.429-8.7-0.389-16.419-5.875-21.906c-6.715-6.715-16.787-8.393-28.538-4.197
				c-10.072,3.357-20.144,10.072-29.377,19.305c-9.233,9.233-15.948,19.305-19.305,29.377c-2.148,7.518-2.567,14.344-0.839,20.048
				v104.175h-16.787v41.967v16.787v167.869h117.508V334.738v-16.787v-41.967h-16.787V129.181z M250.803,156.797
				c2.518-7.554,7.554-16.787,15.108-23.502c7.554-6.715,15.948-12.59,23.502-15.108c3.357-1.679,5.875-1.679,7.554-1.679
				s3.357,0.839,4.197,2.518c0.854,0.854,1.271,2.526,1.173,4.788c-0.559,0.814-0.967,1.739-1.173,2.766
				c-1.679,8.393-7.554,17.626-15.948,26.02c-15.108,15.108-31.056,18.466-34.413,15.108c0,0,0,0-0.839-0.839
				c-0.142-0.708-0.386-1.364-0.703-1.969C249.081,162.976,249.466,160.364,250.803,156.797z M250.803,185.915
				c1.325,0.172,2.718,0.259,4.197,0.259c4.197,0,8.393-0.839,12.59-1.679c10.072-3.357,20.144-10.072,29.377-19.305
				c1.472-1.472,2.867-2.963,4.197-4.463v115.256h-50.361V185.915z M317.951,485.82h-83.934V334.738h83.934V485.82z
				 M234.016,317.951v-25.18h8.393h67.148h8.393v25.18H234.016z"/>
			<path d="M158.475,24.18c5.036,0,8.393-3.357,8.393-8.393s-3.357-8.393-8.393-8.393H66.148c-1.485,0-2.819,0.299-3.969,0.839
				H39.289C17.466,8.233-1,25.859-1,48.521v397.01c0,21.823,17.626,40.289,40.289,40.289h26.859h8.393h83.934
				c5.036,0,8.393-3.357,8.393-8.393c0-5.036-3.357-8.393-8.393-8.393H74.541v-25.18h83.934c5.036,0,8.393-3.357,8.393-8.393
				s-3.357-8.393-8.393-8.393H74.541v-25.18h83.934c5.036,0,8.393-3.357,8.393-8.393s-3.357-8.393-8.393-8.393H74.541v-25.18h83.934
				c5.036,0,8.393-3.357,8.393-8.393c0-5.036-3.357-8.393-8.393-8.393H74.541v-25.18h83.934c5.036,0,8.393-3.357,8.393-8.393
				c0-5.036-3.357-8.393-8.393-8.393H74.541v-25.18h83.934c5.036,0,8.393-3.357,8.393-8.393c0-5.036-3.357-8.393-8.393-8.393H74.541
				v-25.18h83.934c5.036,0,8.393-3.357,8.393-8.393s-3.357-8.393-8.393-8.393H74.541v-25.18h83.934c5.036,0,8.393-3.357,8.393-8.393
				s-3.357-8.393-8.393-8.393H74.541v-25.18h83.934c5.036,0,8.393-3.357,8.393-8.393s-3.357-8.393-8.393-8.393H74.541v-25.18h83.934
				c5.036,0,8.393-3.357,8.393-8.393s-3.357-8.393-8.393-8.393H74.541v-25.18h83.934c5.036,0,8.393-3.357,8.393-8.393
				s-3.357-8.393-8.393-8.393H74.541V24.18H158.475z M15.787,445.531V48.521c0-13.43,10.911-24.341,23.502-24.341h18.466v444.852
				H39.289C26.698,469.033,15.787,458.961,15.787,445.531z"/>
		</g>
	</g>
</g>
</svg>